<svg xmlns="http://www.w3.org/2000/svg" viewBox="0 0 1315.21 395.82"><title>Asset 2</title><g id="Layer_2" data-name="Layer 2"><g id="Layer_1-2" data-name="Layer 1"><path d="M28.43,73.2,22.64,91.94H0L32.58,2H55.22L87.67,91.94H65L59.24,73.2ZM54.21,56,44,22.77h-.25L33.58,56Z"/><path d="M152.19,43.77V44c9.43,1.64,17.48,7.93,17.48,21.39,0,19.11-12.2,26.53-30.81,26.53H94V2H137.6c18.74,0,28.55,7.3,28.55,22.64C166.15,35.72,159.61,41.26,152.19,43.77Zm-20-5.41c6.29,0,11.32-1.51,11.32-8.93s-5-8.93-11.32-8.93h-15.6V38.36Zm-15.6,35.1h16.23c9.43,0,14.21-2.27,14.21-10.7S142.25,52.2,132.82,52.2H116.59Z"/><path d="M217.34,18.49c-15,0-20,11.57-20,28.43s5,28.55,20,28.55c12.07,0,16.6-7.17,18.11-17.23h22.64C256.08,79.37,243,94,218.34,94c-28.42,0-43.64-19.88-43.64-47S189.92,0,218.34,0C242.87,0,256,14.59,258.09,35.47H235.45C233.81,25.66,229.29,18.49,217.34,18.49Z"/><path d="M266,2h39.87c25,0,40.12,16.1,40.12,45s-13.83,44.9-38.86,44.9H266Zm22.64,71.45h15c14.08,0,19.74-10.07,19.74-26.42S317.7,20.5,303.62,20.5h-15Z"/><path d="M416.56,36.48V55H377.32V73.46H423.6V91.94H354.68V2h68.17V20.5H377.32v16Z"/><path d="M492.4,40.25V58.74H456.3v33.2H433.66V2h66.92V20.5H456.3V40.25Z"/><path d="M546.48,18.49c-14.84,0-20.5,11.57-20.5,28.43s5.66,28.55,21.38,28.55c10.44,0,17.74-6.29,18-15H548.24V44.15h40.51V91.94H572.52L570.26,80.5H570C565.73,88.67,557.3,94,544.09,94c-25.53,0-40.75-19.88-40.75-47S518.56,0,546.86,0c24.65,0,38.36,14.59,40.5,31.82H564.72C563.09,25.66,558.94,18.49,546.48,18.49Z"/><path d="M622.2,2V37.23H653V2h22.65V91.94H653V55.72H622.2V91.94H599.56V2Z"/><path d="M710.74,2V91.94H688.1V2Z"/><path d="M751.24,94C726.59,94,720.43,79.37,720.43,62V54.46h20.12V62c0,8.55,2,13.46,9.43,13.46s9.44-4.91,9.44-13.46V2h22.64V62C782.06,79.37,775.89,94,751.24,94Z"/><path d="M816.14,2V38.49L847.46,2h26.41L839.66,41.63l35.47,50.31H848.72L825.2,57.86l-9.06,10.31V91.94H793.5V2Z"/><path d="M903.8,2V73.46h40V91.94H881.16V2Z"/><path d="M952.22,2H979.9l18.49,57.36h.25L1017.13,2h27.67V91.94h-21.38V36h-.26l-16.73,56H990.59L973.86,36h-.25v56H952.22Z"/><path d="M1057.12,2h22.64l31.45,53.46h.25V2h22.64V91.94h-22.64L1080,38.49h-.25V91.94h-22.64Z"/><path d="M1143.4,46.92c0-27,16-46.92,44.52-46.92,28.3,0,44.53,19.87,44.53,46.92s-16.23,47-44.53,47C1159.37,94,1143.4,74.08,1143.4,46.92Zm66.41,0c0-15.6-5.53-28.43-21.89-28.43S1166,31.32,1166,46.92s5.41,28.55,21.88,28.55S1209.81,62.64,1209.81,46.92Z"/><path d="M1241.12,2h43.65c18.74,0,30.44,9.81,30.44,28.68s-11.7,28.68-30.44,28.68h-21V91.94h-22.64Zm22.64,38.87H1280c7.8,0,12.58-2.64,12.58-10.19S1287.79,20.5,1280,20.5h-16.23Z"/><path d="M82.38,228.79,91.57,238l-12.2,12.2L69.18,240a48.08,48.08,0,0,1-22,4.91c-28.55,0-44.53-19.88-44.53-47s16-46.91,44.53-46.91c28.3,0,44.52,19.87,44.52,46.91C91.69,209.92,88.42,220.61,82.38,228.79Zm-27.79-3.53L43.52,214.2,55.72,202l11.07,11.06a47.73,47.73,0,0,0,2.26-15.22c0-15.59-5.53-28.42-21.88-28.42s-21.89,12.83-21.89,28.42,5.41,28.56,21.89,28.56A22.33,22.33,0,0,0,54.59,225.26Z"/><path d="M100.37,152.94h42.38c20,0,32.08,9.18,32.08,26.16,0,12-7.05,19.5-18.24,22v.26c22.51,3.9,14.34,38.74,19.49,40.25v1.25H152.56c-4.4-3.77,3.78-31.32-15.47-31.32H123v31.32H100.37ZM123,193.06h15.34c9.06,0,13.84-3.27,13.84-10.81s-4.78-10.82-13.84-10.82H123Z"/><path d="M257.08,216.46c0,17.23-13.08,28.43-35.59,28.43-23.4,0-41-11.58-41-31.57h22.64c0,9.55,8.3,13.08,18.37,13.08,8.42,0,12.95-3.27,12.95-7.8,0-7.17-9.68-8.81-22.39-12.58-15.47-4.53-29.05-11.19-29.05-27.8,0-19.62,15.34-27.29,34.71-27.29,21,0,37.49,11.07,38.11,29.31H233.18c-1-6.8-6.79-10.82-15.47-10.82-6.79,0-12.07,2.14-12.07,7.17,0,5.53,5.66,7.29,17,10.44C239.6,191.68,257.08,197.22,257.08,216.46Z"/><path d="M285.13,171.43H259V152.94H333.8v18.49h-26v71.44H285.13Z"/><path d="M379.08,244.89c-27.17,0-37.61-12.08-37.61-34.47V152.94h22.64v57.48c0,11.7,5,16,15,16s15-4.28,15-16V152.94h22.64v57.48C416.69,232.81,406.25,244.89,379.08,244.89Z"/><path d="M447.25,152.94l17,63h.25l17.1-63h23.9L476.3,242.87H452.4l-29.18-89.93Z"/><path d="M530.51,152.94l11.57,61h.25l14-61h21.38l14,61h.25l11.57-61H626.1l-22.89,89.93H580.57l-13.46-56.09h-.25L553.4,242.87H530.76l-22.89-89.93Z"/><path d="M629,152.94h23.89l16.48,27.42h.25l16.61-27.42h23.89l-27.29,43.77,29.81,46.16H687.47l-17.86-29.18h-.25l-17.73,29.18H626.47L656.28,197Z"/><path d="M737,152.94l17.48,37h.25l17.61-37h23.9L766,209.67v33.2H743.32v-33.2l-30.19-56.73Z"/><path d="M866,152.94v18.49l-41.13,52.7v.25H867.2v18.49H797.15V224.38l41.13-52.7v-.25H799.66V152.94Z"/><path d="M3.14,350.41c0-24.65,12.21-45.53,38.24-45.53s38.11,20.88,38.11,45.53-12.07,45.41-38.11,45.41S3.14,375.06,3.14,350.41Zm55,0c0-17.23-4-28.3-16.73-28.3s-16.85,11.07-16.85,28.3,4.15,28.17,16.85,28.17S58.11,367.64,58.11,350.41Z"/><path d="M124.77,306.89V393.8H103.39V335.06c-4.91,5-12.2,5-18.37,5V325c16.48,0,22.14-8.68,22.14-18.11Z"/><path d="M136.84,338.59c0-20.38,10.82-33.71,34.34-33.71,18.74,0,31.32,9.81,31.32,26.41,0,22.89-25.66,34-36.85,45v.25H202.5V393.8H135.58c0-14.46,7.55-23.39,15.22-29.81,15.6-12.95,30.32-19.74,30.32-31.19,0-6.67-3.78-10.69-10.57-10.69-8.17,0-13.58,4.53-13.58,16.48Z"/><path d="M210.17,333.55c0-16.6,12.32-28.67,34.59-28.67,16.22,0,31.06,8.55,31.06,23.9,0,9.43-5.53,15.34-12.57,19V348c10.69,3.4,15.09,10.69,15.09,21.38,0,17.11-14,26.42-33.21,26.42-24.52,0-37.48-11.83-37.48-32.71h20.13c0,10.06,4.65,15.47,15.84,15.47,9.06,0,13.34-3.9,13.34-10.44,0-8.42-5.92-11.57-16-11.57h-4.4V341.86h3.9c9.31,0,14-3,14-9.56,0-7.42-4.28-10.19-11.32-10.19-6.67,0-12.83,3.14-12.83,11.44Z"/><path d="M323.11,393.8V375.44H283.74v-21l39.37-47.54h21.38v51.32h12.83v17.23H344.49V393.8Zm-23.64-35.59h23.64v-28Z"/><path d="M432.41,364.37c0,20.88-14.59,31.45-33.83,31.45-24.28,0-36.86-11.83-37.49-28.93h21.39c.62,6.28,5.78,11.69,14.84,11.69,8.05,0,13.71-4.9,13.71-14.46,0-9.18-4.91-14.59-14.09-14.59a16.81,16.81,0,0,0-13.21,6.29H363.61l10.06-48.93h55v17.23H388.26L385,340.72V341a28.74,28.74,0,0,1,18.62-6.17C420.84,334.81,432.41,345.76,432.41,364.37Z"/><path d="M480.58,334.56c18,0,29.94,12.83,29.94,29.43,0,19.25-13.21,31.83-34.09,31.83-28.68,0-38-21.64-38-44.28,0-31.44,15-46.66,37.23-46.66,16.86,0,29.56,10.06,32.33,24H486.62c-.63-3-3.4-8-11.32-8-10.82,0-15.22,8.93-15.47,21.38v.26C464.48,338.08,470.64,334.56,480.58,334.56Zm9.81,30.57c0-8.31-5.91-14.59-15.22-14.59s-15.34,6.28-15.34,14.59,5.91,14.71,15.34,14.71S490.39,373.55,490.39,365.13Z"/><path d="M578.31,306.89v16C558.56,338.84,551,367,551,393.8H528.37c0-27.79,11.83-56.22,27.3-69.43v-.25H514.54V306.89Z"/><path d="M599.06,347v-.25c-6.16-3.27-12.58-8.55-12.58-18.36,0-15,14.34-23.52,32.2-23.52s32.2,8.55,32.2,23.52c0,9.81-6.54,15.09-12.58,18.36V347c8.18,3.65,16.35,10.19,16.35,21.89,0,17.86-16.1,26.92-36,26.92s-36-9.06-36-26.92C582.71,357.2,590.76,350.66,599.06,347Zm34.21,19.88c0-6.8-5.41-12.71-14.59-12.71s-14.59,5.91-14.59,12.71c0,7,5.41,12.95,14.59,12.95S633.27,373.93,633.27,366.89ZM632,330.29c0-5.66-4.52-10.7-13.33-10.7s-13.33,5-13.33,10.7c0,5.91,4.53,10.81,13.33,10.81S632,336.2,632,330.29Z"/><path d="M688.86,366.13c-18,0-29.93-12.83-29.93-29.43,0-19.24,13.21-31.82,34.08-31.82,28.68,0,38,21.63,38,44.27,0,31.45-15,46.67-37.23,46.67-16.85,0-29.56-10.07-32.33-24h21.39c.63,3,3.39,8,11.32,8,10.81,0,15.22-8.93,15.47-21.38v-.25C705,362.61,698.8,366.13,688.86,366.13Zm-9.81-30.56c0,8.3,5.91,14.59,15.22,14.59s15.35-6.29,15.35-14.59-5.91-14.72-15.35-14.72S679.05,327.14,679.05,335.57Z"/></g></g></svg>