<svg xmlns="http://www.w3.org/2000/svg" viewBox="0 0 144.56 14.94"><title>let-work-together</title><g id="Layer_2" data-name="Layer 2"><g id="Layer_1-2" data-name="Layer 1"><path d="M3,0V9.52H8.34V12H0V0Z"/><path d="M14.88,9.38h2.66c-.47,1.73-1.81,2.87-4.14,2.87A4.29,4.29,0,0,1,8.83,7.69a4.27,4.27,0,0,1,4.42-4.56c2.93,0,4.42,2.15,4.42,5.26H11.51a1.77,1.77,0,0,0,1.84,1.85A1.5,1.5,0,0,0,14.88,9.38ZM11.51,6.77H15A1.62,1.62,0,0,0,13.25,5,1.62,1.62,0,0,0,11.51,6.77Z"/><path d="M21.83,5.41V9c0,1,.35,1,1.49,1v2a7.23,7.23,0,0,1-1.66.18c-2,0-2.51-1-2.51-3V5.41H18v-2h1.19V1h2.68V3.4h1.49v2Z"/><path d="M26.85,0l-.34,4.51H24.84L24.5,0Z"/><path d="M35.08,9.45c0,1.81-1.38,2.8-3.76,2.8-3.06,0-4.24-1.38-4.32-3.12h2.51c.09.86.66,1.27,1.71,1.27.76,0,1.17-.25,1.17-.73,0-.74-.8-.84-2.16-1.14s-3.06-.86-3.06-2.65c0-1.56,1.34-2.75,3.75-2.75,2.75,0,3.82,1.39,3.9,2.9H32.31c-.08-.69-.45-1-1.32-1s-1.14.26-1.14.68c0,.61.53.62,1.86.91C33.4,6.94,35.08,7.51,35.08,9.45Z"/><path d="M40.8,3.4l1.29,5.23h0l1.4-5.23h2.35l1.41,5.23h0L48.61,3.4h2.68L48.89,12H46.38L44.72,6.55h0L43,12H40.52L38.12,3.4Z"/><path d="M55.79,12.25A4.31,4.31,0,0,1,51.2,7.69a4.31,4.31,0,0,1,4.59-4.56,4.3,4.3,0,0,1,4.58,4.56A4.3,4.3,0,0,1,55.79,12.25Zm0-2c1.18,0,1.9-.89,1.9-2.55S57,5.14,55.79,5.14,53.88,6,53.88,7.69,54.6,10.24,55.79,10.24Z"/><path d="M66.83,3.32V5.66h0A2.27,2.27,0,0,0,64,8v4H61.29V3.4H64V4.81h0a2.3,2.3,0,0,1,2.09-1.56A2.88,2.88,0,0,1,66.83,3.32Z"/><path d="M70.38,0V6.3l2.51-2.9h3.2l-3,3.22L76.45,12H73.26l-2-3.42-.85.89V12H67.7V0Z"/><path d="M83.33,5.41V9c0,1,.35,1,1.49,1v2a7.23,7.23,0,0,1-1.66.18c-2,0-2.51-1-2.51-3V5.41H79.46v-2h1.19V1h2.68V3.4h1.49v2Z"/><path d="M89.93,12.25a4.3,4.3,0,0,1-4.59-4.56,4.58,4.58,0,0,1,9.16,0A4.3,4.3,0,0,1,89.93,12.25Zm0-2c1.17,0,1.89-.89,1.89-2.55s-.72-2.55-1.89-2.55S88,6,88,7.69,88.74,10.24,89.93,10.24Z"/><path d="M103.7,3.4v7.74c0,2.83-1.63,3.8-4.22,3.8s-4-1.4-4.28-2.78h2.68c.17.47.59.86,1.53.86,1.2,0,1.61-.64,1.61-2.06v-.51h0a2.84,2.84,0,0,1-2.34,1.13c-2.2,0-3.6-1.75-3.6-4.23s1.4-4.22,3.6-4.22A2.84,2.84,0,0,1,101,4.26h0V3.4Zm-2.73,4c0-1.39-.54-2.21-1.63-2.21S97.72,6,97.72,7.35s.53,2.22,1.62,2.22S101,8.75,101,7.35Z"/><path d="M110.66,9.38h2.67c-.47,1.73-1.81,2.87-4.14,2.87a4.29,4.29,0,0,1-4.57-4.56A4.27,4.27,0,0,1,109,3.13c2.93,0,4.42,2.15,4.42,5.26H107.3a1.76,1.76,0,0,0,1.84,1.85A1.47,1.47,0,0,0,110.66,9.38ZM107.3,6.77h3.48a1.74,1.74,0,1,0-3.48,0Z"/><path d="M117.61,5.41V9c0,1,.36,1,1.49,1v2a7.06,7.06,0,0,1-1.65.18c-2,0-2.52-1-2.52-3V5.41h-1.19v-2h1.19V1h2.68V3.4h1.49v2Z"/><path d="M128.4,6.18V12h-2.68V7c0-1.29-.42-1.73-1.39-1.73A1.51,1.51,0,0,0,122.77,7v5h-2.68V0h2.68V4.64h0a2.92,2.92,0,0,1,2.66-1.51A2.74,2.74,0,0,1,128.4,6.18Z"/><path d="M135.3,9.38H138c-.47,1.73-1.81,2.87-4.14,2.87a4.29,4.29,0,0,1-4.58-4.56,4.28,4.28,0,0,1,4.43-4.56c2.93,0,4.42,2.15,4.42,5.26h-6.17a1.77,1.77,0,0,0,1.85,1.85A1.48,1.48,0,0,0,135.3,9.38Zm-3.37-2.61h3.49a1.75,1.75,0,1,0-3.49,0Z"/><path d="M144.56,3.32V5.66h0A2.27,2.27,0,0,0,141.7,8v4H139V3.4h2.68V4.81h0a2.31,2.31,0,0,1,2.1-1.56A2.84,2.84,0,0,1,144.56,3.32Z"/></g></g></svg>