<svg xmlns="http://www.w3.org/2000/svg" viewBox="0 0 434.05 217.68"><defs><style>.cls-1{fill:none;stroke:#000;stroke-miterlimit:10;}</style></defs><title>logo</title><g id="Layer_2" data-name="Layer 2"><g id="Layer_1-2" data-name="Layer 1"><path class="cls-1" d="M.16,71.12c61.56-20.85,105.49-21.07,130-19,7.83.67,12.91,1.5,18,5,40,27.57-11.67,157-3,160,9.79,3.39,77.23-160.92,85-158,2.08.79-.1,13.63,2,14,2.36.43,6.52-15.47,9-15,2.14.41,1,12.68,3,13s5.43-13.36,8-13c2.06.29,1.27,9.25,4,10,3.47,1,7.75-8.49,9.06-10.72,3.37-5.7,12.41-8.42,18.35-10.88,15.07-6.25,31-10.13,46.7-14.27Q382.7,18.48,433.89.47"/></g></g></svg>