<svg xmlns="http://www.w3.org/2000/svg" viewBox="0 0 452.67 452.44"><title>logo-circle_1</title><g id="Layer_2" data-name="Layer 2"><g id="Layer_1-2" data-name="Layer 1"><path d="M8.89,249.41c38.75-14.73,80.17-25,121.88-24.19,7.26.14,15,.16,22.08,1.92a25.24,25.24,0,0,1,15.36,11.6c6.46,10.51,7.35,23.86,7.2,35.88-.36,29.42-7.92,58.43-14.68,86.89-1.22,5.15-2.45,10.3-3.47,15.49a47.47,47.47,0,0,0-1.35,10.19c.05,1.85.58,4.4,2.94,4.33,2-.07,3.53-2.08,4.65-3.46,5.24-6.53,9.08-14.33,12.95-21.7,6.06-11.53,11.75-23.26,17.38-35,11.94-24.87,23.37-50,35.84-74.61,3.71-7.33,7.34-15,12.16-21.67A11.69,11.69,0,0,1,243.6,233c-.12.11.48-.22.47-.3.05.44-.86-.21-.93-.11a9.94,9.94,0,0,0,.25,1.6c.07.83.07,1.67.08,2.51,0,1.9-.08,3.81,0,5.72s.92,5.78,3.76,4.12c2.18-1.27,3.21-5,4.13-7.11.69-1.6,1.35-3.22,2.11-4.79.2-.41,1.69-2.77,1.65-2.85l-.89-.28a1,1,0,0,1,.15.31,3,3,0,0,0,.16.58,13.25,13.25,0,0,1,.33,2.26c.19,1.9.25,3.8.48,5.68s1.15,5.93,4,4.15c2.28-1.43,3.22-5.43,4.2-7.71.63-1.48,1.52-2.87,2.13-4.33,0-.09.45-.49.46-.58l0,0a4.91,4.91,0,0,0-.74-.24,13.67,13.67,0,0,0,.66,2.26c.48,2.48.56,7.1,3.61,8,3.49,1,6.29-3.57,7.77-6,1.24-2,2-4.46,3.5-5.86a40.42,40.42,0,0,1,8.61-6c11.79-6.43,25.53-8.64,38.52-11.4,28.17-6,56.58-10.88,85-15.54q10.78-1.77,21.57-3.46c3-.47,6.06-1,9.1-1.41,2.06-.27,4.24-.52,5.11-2.73s-.31-5.2-.76-7.49q-1.08-5.41-2.41-10.77-2.52-10.11-6-20a226.34,226.34,0,1,0,10.35,107.79c3.08-21.26,3.66-43.58.21-64.82-.31-1.9-3.21-1.1-2.9.79,2,12.14,2.3,24.62,2,36.9a223,223,0,1,1-7.67-64.12q1.35,5,2.46,10,.56,2.48,1,5c.28,1.37,1.27,3.73,1,5.12s-1.88,1.23-2.93,1.37c-1.49.19-3,.45-4.44.68q-5.42.84-10.83,1.7-21,3.33-42,7-20.82,3.62-41.58,7.63c-13.67,2.67-27.53,5.2-40.94,9-8.68,2.46-17.8,6.25-24.5,12.5-1.55,1.44-2.29,3.46-3.33,5.28a21,21,0,0,1-3.52,5c-1.36,1.27-1.83,1.08-2.33-.62-.66-2.26-.32-7.52-3.15-8.43-2.62-.84-4.18,2.92-5,4.7-.68,1.49-1.29,3-1.94,4.52-.33.75-.65,1.49-1,2.21a14.41,14.41,0,0,0-1,1.64h0c1,.51,1.36.52,1,0a2.45,2.45,0,0,0-.18-.68,15.42,15.42,0,0,1-.31-2.25c-.16-1.76-.23-3.53-.44-5.28s-.76-5.77-3.6-4.88c-2.38.74-3.57,4.7-4.44,6.7-.67,1.55-1.32,3.13-2,4.67a40.26,40.26,0,0,0-2,3.63c.05.12,3.74-1.81,1.06.29,0,0-.1-.25-.09-.28a8.83,8.83,0,0,0-.21-1.93c-.09-1.93,0-3.85,0-5.78s.23-5.74-2.18-6.38a2.71,2.71,0,0,0-2.24.57c-1.9,1.29-3.22,3.63-4.42,5.51-4.88,7.65-8.88,15.88-12.91,24-5.93,11.91-11.63,23.92-17.33,35.94-11.47,24.19-22.6,48.61-35.24,72.21-3.43,6.4-7,13.93-11.88,19.14a6.62,6.62,0,0,1-1.62,1.32c.07-.05.48,0,.48.11,0-.32,0,.32-.05-.16,0-.2-.1-.38-.13-.58,0,.26,0-.88,0-1.23a31.43,31.43,0,0,1,.42-4.32c1.59-10.4,4.44-20.64,6.86-30.86,3.41-14.4,6.64-28.85,9-43.46,2.3-14.36,4-29.05,3-43.61-.77-11.14-3.13-23.23-10.78-31.85-5.68-6.39-13.36-8.79-21.69-9.58-6.15-.58-12.35-.82-18.53-.84A277.34,277.34,0,0,0,76.54,227,391.71,391.71,0,0,0,8.09,246.52c-1.79.68-1,3.58.8,2.89Z"/></g></g></svg>