<svg xmlns="http://www.w3.org/2000/svg" viewBox="0 0 179.76 12.63"><title>name</title><g id="Layer_2" data-name="Layer 2"><g id="Layer_1-2" data-name="Layer 1"><path d="M0,.27H5.36c3.36,0,5.39,2.16,5.39,6.05s-1.86,6-5.22,6H0Zm3,9.6h2C7,9.87,7.71,8.52,7.71,6.32S7,2.76,5.06,2.76H3Z"/><path d="M14.14,9.84l-.78,2.52h-3L14.7.27h3L22.1,12.36h-3l-.78-2.52ZM17.6,7.52,16.23,3.06h0L14.83,7.52Z"/><path d="M23,.27h3l4.23,7.19h0V.27h3V12.36h-3L26,5.17h0v7.19H23Z"/><path d="M40.37,2.49c-2,0-2.76,1.55-2.76,3.82s.76,3.83,2.88,3.83a2.17,2.17,0,0,0,2.41-2H40.6V5.93h5.45v6.43H43.87l-.31-1.54h0a3.61,3.61,0,0,1-3.48,1.81c-3.43,0-5.48-2.67-5.48-6.32S36.62,0,40.42,0c3.31,0,5.16,2,5.44,4.28h-3A2.26,2.26,0,0,0,40.37,2.49Z"/><path d="M53.36,2.76H49.84V.27H59.9V2.76H56.4v9.6h-3Z"/><path d="M64.06.27V5h4.15V.27h3V12.36h-3V7.49H64.06v4.87H61V.27Z"/><path d="M77.88,12.63c-3.65,0-5-1.62-5-4.63V.27h3V8c0,1.57.68,2.14,2,2.14s2-.57,2-2.14V.27h3V8C82.94,11,81.53,12.63,77.88,12.63Z"/><path d="M86.91.27l2.35,5h0l2.37-5h3.21L90.8,7.9v4.46h-3V7.9L83.7.27Z"/><path d="M104,4.9V7.39H98.77V9.87H105v2.49H95.73V.27h9.16V2.76H98.77V4.9Z"/><path d="M106.35.27h3l4.23,7.19h0V.27h3V12.36h-3l-4.23-7.19h0v7.19h-3Z"/><path d="M123.6.27l2.28,8.47h0l2.3-8.47h3.22L127.5,12.36h-3.21L120.37.27Z"/><path d="M137.38,12.63c-3.65,0-5-1.62-5-4.63V.27h3V8c0,1.57.67,2.14,2,2.14s2-.57,2-2.14V.27h3.05V8C142.44,11,141,12.63,137.38,12.63Z"/><path d="M143.52,6.31c0-3.64,2.15-6.31,6-6.31s6,2.67,6,6.31-2.18,6.32-6,6.32S143.52,10,143.52,6.31Zm8.93,0c0-2.1-.75-3.82-2.94-3.82s-2.94,1.72-2.94,3.82.72,3.83,2.94,3.83S152.45,8.42,152.45,6.31Z"/><path d="M156.66.27h3.05l4.22,7.19h0V.27h3V12.36h-3l-4.23-7.19h0v7.19h-3.05Z"/><path d="M174.08,2.49c-2,0-2.75,1.55-2.75,3.82s.76,3.83,2.87,3.83a2.19,2.19,0,0,0,2.42-2h-2.3V5.93h5.44v6.43h-2.18l-.3-1.54h0a3.6,3.6,0,0,1-3.48,1.81c-3.43,0-5.48-2.67-5.48-6.32S170.33,0,174.13,0c3.32,0,5.16,2,5.45,4.28h-3.05A2.25,2.25,0,0,0,174.08,2.49Z"/></g></g></svg>