<svg xmlns="http://www.w3.org/2000/svg" viewBox="0 0 183.45 112.98"><title>num02</title><g id="Layer_2" data-name="Layer 2"><g id="Layer_1-2" data-name="Layer 1"><path d="M0,56.57C0,25.94,15.16,0,47.5,0S94.85,25.94,94.85,56.57,79.85,113,47.5,113,0,87.2,0,56.57Zm68.29,0c0-21.41-5-35.16-20.79-35.16S26.56,35.16,26.56,56.57s5.16,35,20.94,35S68.29,78,68.29,56.57Z"/><path d="M101.88,41.88C101.88,16.56,115.32,0,144.54,0c23.29,0,38.91,12.19,38.91,32.82,0,28.44-31.88,42.19-45.78,55.94v.31h45.78v21.41H100.32c0-18,9.38-29.07,18.91-37,19.37-16.09,37.66-24.53,37.66-38.75,0-8.28-4.69-13.28-13.13-13.28-10.16,0-16.88,5.62-16.88,20.47Z"/></g></g></svg>