<svg xmlns="http://www.w3.org/2000/svg" viewBox="0 0 188.45 112.98"><title>num03_1</title><g id="Layer_2" data-name="Layer 2"><g id="Layer_1-2" data-name="Layer 1"><path d="M0,56.57C0,25.94,15.16,0,47.5,0S94.85,25.94,94.85,56.57,79.85,113,47.5,113,0,87.2,0,56.57Zm68.29,0c0-21.41-5-35.16-20.79-35.16S26.57,35.16,26.57,56.57s5.15,35,20.93,35S68.29,78,68.29,56.57Z"/><path d="M103.76,35.63C103.76,15,119.07,0,146.73,0c20.16,0,38.6,10.63,38.6,29.69,0,11.72-6.88,19.06-15.63,23.6v.31c13.28,4.22,18.75,13.28,18.75,26.56,0,21.26-17.34,32.82-41.25,32.82-30.47,0-46.57-14.69-46.57-40.63h25c0,12.5,5.79,19.22,19.69,19.22,11.25,0,16.57-4.84,16.57-13,0-10.47-7.35-14.37-19.85-14.37h-5.47V45.94h4.85c11.56,0,17.34-3.75,17.34-11.87,0-9.22-5.31-12.66-14.06-12.66-8.28,0-15.94,3.9-15.94,14.22Z"/></g></g></svg>