<svg xmlns="http://www.w3.org/2000/svg" viewBox="0 0 187.52 112.98"><title>num05</title><g id="Layer_2" data-name="Layer 2"><g id="Layer_1-2" data-name="Layer 1"><path d="M0,56.57C0,25.94,15.16,0,47.5,0S94.85,25.94,94.85,56.57,79.85,113,47.5,113,0,87.2,0,56.57Zm68.29,0c0-21.41-5-35.16-20.79-35.16S26.56,35.16,26.56,56.57s5.16,35,20.94,35S68.29,78,68.29,56.57Z"/><path d="M187.52,73.91c0,25.94-18.13,39.07-42,39.07C115.32,113,99.69,98.29,98.91,77h26.57c.78,7.81,7.19,14.53,18.44,14.53,10,0,17-6.09,17-18,0-11.41-6.09-18.13-17.5-18.13A20.88,20.88,0,0,0,127,63.29H102L114.54,2.5h68.29V23.91H132.67L128.6,44.54v.31c5.94-4.69,13.29-7.66,23.13-7.66C173.14,37.19,187.52,50.79,187.52,73.91Z"/></g></g></svg>