<svg xmlns="http://www.w3.org/2000/svg" viewBox="0 0 191.89 112.98"><title>num06</title><g id="Layer_2" data-name="Layer 2"><g id="Layer_1-2" data-name="Layer 1"><path d="M0,56.57C0,25.94,15.16,0,47.5,0S94.85,25.94,94.85,56.57,79.85,113,47.5,113,0,87.2,0,56.57Zm68.29,0c0-21.41-5-35.16-20.79-35.16S26.56,35.16,26.56,56.57s5.16,35,20.94,35S68.29,78,68.29,56.57Z"/><path d="M154.7,36.88c22.34,0,37.19,15.94,37.19,36.56,0,23.91-16.41,39.54-42.35,39.54-35.63,0-47.19-26.88-47.19-55,0-39.06,18.59-58,46.25-58,20.94,0,36.73,12.5,40.16,29.85H162.2c-.78-3.75-4.22-10-14.06-10-13.44,0-18.91,11.09-19.23,26.56v.31C134.7,41.25,142.35,36.88,154.7,36.88Zm12.19,38c0-10.31-7.35-18.13-18.91-18.13-11.72,0-19.07,7.82-19.07,18.13,0,10.47,7.35,18.28,19.07,18.28C159.54,93.13,166.89,85.32,166.89,74.85Z"/></g></g></svg>